<?xml version="1.0" encoding="utf-8"?>
<!-- Generator: Adobe Illustrator 23.0.1, SVG Export Plug-In . SVG Version: 6.00 Build 0)  -->
<svg version="1.1" id="Camada_1" xmlns="http://www.w3.org/2000/svg" xmlns:xlink="http://www.w3.org/1999/xlink" x="0px" y="0px"
	 viewBox="0 0 27.5 32" style="enable-background:new 0 0 27.5 32;" xml:space="preserve">
<style type="text/css">
	.st0{fill:#FFBB00;}
</style>
<path class="st0" d="M5,13.2c0.6-1,1.5-1.7,2.7-2.3c1.2-0.6,2.5-0.9,3.9-0.9c1.7,0,3.2,0.4,4.6,1.3c1.4,0.8,2.5,2,3.3,3.6
	c0.8,1.5,1.2,3.3,1.2,5.4s-0.4,3.9-1.2,5.4c-0.8,1.6-1.9,2.8-3.3,3.6c-1.4,0.9-2.9,1.3-4.6,1.3c-1.5,0-2.8-0.3-3.9-0.9
	c-1.1-0.6-2-1.4-2.7-2.3v2.8H0V3.6h5C5,3.6,5,13.2,5,13.2z M15.6,20.2c0-1.2-0.3-2.2-0.8-3.1c-0.5-0.9-1.1-1.6-1.9-2
	c-0.8-0.5-1.7-0.7-2.6-0.7c-0.9,0-1.8,0.2-2.6,0.7c-0.8,0.5-1.4,1.1-1.9,2C5.3,18,5,19.1,5,20.3s0.2,2.2,0.7,3.1
	c0.5,0.9,1.2,1.6,1.9,2.1c0.8,0.5,1.7,0.7,2.6,0.7c0.9,0,1.8-0.2,2.6-0.7c0.8-0.5,1.5-1.2,1.9-2.1C15.3,22.5,15.6,21.4,15.6,20.2z
	 M24.4,7.9c-0.9,0-1.6-0.3-2.2-0.8c-0.6-0.6-0.9-1.3-0.9-2.1s0.3-1.5,0.9-2.1C22.8,2.3,23.5,2,24.4,2s1.6,0.3,2.2,0.9
	c0.6,0.6,0.9,1.2,0.9,2.1s-0.3,1.5-0.9,2.1C26,7.6,25.3,7.9,24.4,7.9z M26.9,10.3v19.9h-5V10.3H26.9z"/>
</svg>
