<svg width="30" height="32" viewBox="0 0 30 32" fill="none" xmlns="http://www.w3.org/2000/svg">
<path d="M25.768 5.37603C24.4514 4.05941 22.8527 2.93088 20.9718 2.17853C19.0909 1.33214 17.116 0.955963 15.047 0.955963C12.9781 0.955963 11.0031 1.33214 9.2163 2.17853C7.42947 2.93088 5.83072 4.05941 4.42006 5.37603C3.10345 6.69264 1.97492 8.29139 1.22257 10.1723C0.470219 11.9591 0 14.0281 0 16.097C0 18.166 0.376175 20.1409 1.22257 21.9277C1.97492 23.7146 3.10345 25.3133 4.42006 26.724C5.73668 28.0406 7.42947 29.1691 9.2163 29.9215C11.0031 30.6738 12.9781 31.144 15.047 31.144C17.116 31.144 19.0909 30.7679 20.8777 29.9215C22.6646 29.1691 24.2633 28.0406 25.674 26.724C26.9906 25.4074 28.1191 23.7146 28.8715 21.9277C29.6238 20.1409 30 18.166 30 16.097C30 14.0281 29.6238 12.0531 28.8715 10.2663C28.1191 8.29139 27.0846 6.69264 25.768 5.37603ZM15.047 27.1942C13.4483 27.1942 12.0376 26.9121 10.721 26.3478C9.40439 25.7835 8.18182 24.9372 7.14734 23.9027C6.11285 22.8682 5.3605 21.6456 4.79624 20.329C4.23198 19.0124 3.94984 17.5077 3.94984 16.003C3.94984 14.4983 4.23198 12.9936 4.79624 11.677C5.3605 10.3604 6.2069 9.13778 7.14734 8.1033C8.18182 7.06882 9.31035 6.31646 10.721 5.7522C12.0376 5.18794 13.5423 4.90581 15.047 4.90581C16.6458 4.90581 18.1505 5.18794 19.4671 5.7522C20.7837 6.31646 22.0063 7.16286 23.0408 8.1033C24.0752 9.13778 24.8276 10.2663 25.3918 11.677C25.9561 12.9936 26.2382 14.4983 26.2382 16.003C26.2382 17.5077 25.9561 18.9183 25.3918 20.329C24.8276 21.6456 23.9812 22.8682 23.0408 23.9027C22.0063 24.9372 20.8777 25.6895 19.4671 26.3478C18.1505 26.9121 16.6458 27.1942 15.047 27.1942Z" fill="url(#paint0_linear_11_9)"/>
<path d="M15.047 8.00928C10.627 8.00928 7.05328 11.5829 7.05328 16.003C7.05328 20.4231 10.627 23.9967 15.047 23.9967C19.4671 23.9967 23.0407 20.4231 23.0407 16.003C23.0407 11.5829 19.4671 8.00928 15.047 8.00928ZM15.047 20.235C12.6959 20.235 10.815 18.3541 10.815 16.003C10.815 13.6519 12.6959 11.771 15.047 11.771C17.3981 11.771 19.279 13.6519 19.279 16.003C19.279 18.3541 17.3981 20.235 15.047 20.235Z" fill="url(#paint1_linear_11_9)"/>
<defs>
<linearGradient id="paint0_linear_11_9" x1="15.0005" y1="0.955963" x2="15.0005" y2="31.144" gradientUnits="userSpaceOnUse">
<stop stop-color="#A0B181"/>
<stop offset="1" stop-color="#83985D"/>
</linearGradient>
<linearGradient id="paint1_linear_11_9" x1="15.0473" y1="8.00928" x2="15.0473" y2="23.9967" gradientUnits="userSpaceOnUse">
<stop stop-color="#A0B181"/>
<stop offset="1" stop-color="#83985D"/>
</linearGradient>
</defs>
</svg>
