<svg width="32" height="32" viewBox="0 0 32 32" fill="none" xmlns="http://www.w3.org/2000/svg">
<path d="M32 16.098C32 7.26199 24.836 0.0979919 16 0.0979919C7.164 0.0979919 0 7.26199 0 16.098C0 24.084 5.85 30.703 13.5 31.903V20.723H9.437V16.096H13.5V12.574C13.5 8.56399 15.89 6.34799 19.544 6.34799C21.294 6.34799 23.125 6.66199 23.125 6.66199V10.599H21.107C19.119 10.599 18.499 11.832 18.499 13.098V16.098H22.936L22.226 20.724H18.5V31.904C26.149 30.703 32 24.083 32 16.098Z" fill="url(#paint0_linear_10_29)"/>
<defs>
<linearGradient id="paint0_linear_10_29" x1="16.0005" y1="0.0979919" x2="16.0005" y2="31.904" gradientUnits="userSpaceOnUse">
<stop stop-color="#A0B181"/>
<stop offset="1" stop-color="#83985D"/>
</linearGradient>
</defs>
</svg>
