<svg width="32" height="32" viewBox="0 0 32 32" fill="none" xmlns="http://www.w3.org/2000/svg">
<path d="M31.33 8.24799C31.1494 7.56717 30.7931 6.94574 30.2967 6.44592C29.8004 5.9461 29.1815 5.58542 28.502 5.39999C26.007 4.72699 16 4.72699 16 4.72699C16 4.72699 5.993 4.72699 3.497 5.39999C2.81774 5.58575 2.19915 5.94656 1.70305 6.44635C1.20695 6.94613 0.850732 7.56738 0.67 8.24799C0 10.76 0 16 0 16C0 16 0 21.24 0.67 23.752C0.850542 24.4329 1.20682 25.0543 1.70315 25.5542C2.19947 26.054 2.81842 26.4147 3.498 26.6C5.992 27.273 15.999 27.273 15.999 27.273C15.999 27.273 26.006 27.273 28.502 26.6C29.1818 26.4148 29.8009 26.0542 30.2974 25.5544C30.7939 25.0545 31.1504 24.433 31.331 23.752C32 21.24 32 16 32 16C32 16 32 10.76 31.33 8.24799ZM12.727 20.758V11.243L21.09 16L12.726 20.757L12.727 20.758Z" fill="url(#paint0_linear_10_26)"/>
<defs>
<linearGradient id="paint0_linear_10_26" x1="16.0005" y1="4.72699" x2="16.0005" y2="27.273" gradientUnits="userSpaceOnUse">
<stop stop-color="#A0B181"/>
<stop offset="1" stop-color="#83985D"/>
</linearGradient>
</defs>
</svg>
