<svg width="84" height="84" viewBox="0 0 84 84" fill="none" xmlns="http://www.w3.org/2000/svg">
<path d="M59.5009 59.4641C54.7759 59.4641 51.8017 60.9341 49.1767 62.265C46.9009 63.42 45.045 64.365 42 64.365C38.85 64.365 37.1017 63.4909 34.8259 62.265C32.2009 60.9341 29.3317 59.4641 24.5017 59.4641C19.6717 59.4641 16.8 60.9341 14.175 62.265C12.6709 63.0341 11.34 63.7009 9.73087 64.0841C8.15587 64.4359 7.00087 65.6959 7.00087 67.2709V67.62C7.00087 69.72 8.96174 71.2241 10.9909 70.8041C13.5817 70.2791 15.54 69.3 17.325 68.3891C19.6009 67.2341 21.42 66.2891 24.5017 66.2891C27.5809 66.2891 29.4 67.1659 31.6759 68.3891C34.3009 69.72 37.17 71.19 42 71.19C46.83 71.19 49.7017 69.72 52.3267 68.3891C54.6 67.2341 56.4559 66.2891 59.5009 66.2891C62.6509 66.2891 64.4017 67.1659 66.675 68.3891C68.4967 69.3 70.455 70.3159 73.08 70.8409C73.5531 70.9332 74.0406 70.9204 74.5082 70.8036C74.9759 70.6868 75.4121 70.4687 75.7862 70.1647C76.1602 69.8607 76.463 69.4783 76.673 69.0445C76.8831 68.6107 76.9953 68.1361 77.0017 67.6541V67.3391C77.0017 65.73 75.81 64.47 74.235 64.1209C72.6259 63.7691 71.3317 63.105 69.825 62.2991C67.2 60.9341 64.2259 59.4641 59.5009 59.4641ZM59.5009 43.89C54.7759 43.89 51.8017 45.3941 49.1767 46.6909C46.9009 47.8091 45.045 48.7909 42 48.7909C38.85 48.7909 37.1017 47.9141 34.8259 46.6909C32.2009 45.36 29.3317 43.89 24.5017 43.89C19.6717 43.89 16.8 45.3941 14.175 46.6909C12.6709 47.4259 11.34 48.1241 9.69674 48.51C8.15587 48.8591 7.00087 50.1191 7.00087 51.6941V52.0459C7.00123 52.5295 7.10934 53.0069 7.31734 53.4435C7.52535 53.8801 7.82802 54.2648 8.20335 54.5698C8.57869 54.8747 9.01726 55.0922 9.48718 55.2064C9.9571 55.3206 10.4466 55.3287 10.92 55.23C13.545 54.705 15.5059 53.6891 17.325 52.815C19.6009 51.5891 21.3517 50.715 24.5017 50.715C27.6517 50.715 29.4 51.5891 31.6759 52.815C34.3009 54.1459 37.17 55.6159 42 55.6159C46.83 55.6159 49.7017 54.1091 52.3267 52.815C54.6 51.5891 56.3509 50.715 59.5009 50.715C62.6509 50.715 64.4017 51.5891 66.675 52.815C68.4967 53.7259 70.455 54.7391 73.08 55.2641C73.5558 55.3579 74.0464 55.3451 74.5167 55.2269C74.9869 55.1086 75.4252 54.8878 75.8001 54.5802C76.1749 54.2726 76.4771 53.8858 76.6848 53.4477C76.8926 53.0095 77.0008 52.5308 77.0017 52.0459V51.7309C77.0017 50.1191 75.81 48.8591 74.235 48.51C72.6259 48.1609 71.3317 47.4941 69.825 46.6909C67.2 45.36 64.2259 43.89 59.5009 43.89ZM69.825 15.6109C67.2 14.28 64.2967 12.81 59.5009 12.81C54.705 12.81 51.8017 14.28 49.1767 15.6109C46.9009 16.7291 45.045 17.7109 42 17.7109C38.85 17.7109 37.1017 16.8341 34.8259 15.6109C32.2009 14.3141 29.3317 12.81 24.5017 12.81C19.6717 12.81 16.8 14.28 14.175 15.6109C12.6709 16.38 11.34 17.0441 9.73087 17.43C8.15587 17.7791 7.00087 19.0391 7.00087 20.6141V20.8609C7.00087 22.9609 8.89087 24.4991 10.92 24.0791C13.545 23.5541 15.5059 22.5409 17.325 21.6641C19.6009 20.5091 21.42 19.5641 24.5017 19.5641C27.5809 19.5641 29.4 20.4409 31.6759 21.6641C34.3009 22.995 37.17 24.465 42 24.465C46.83 24.465 49.7017 22.9609 52.3267 21.6641C54.6 20.5459 56.4559 19.5641 59.5009 19.5641C62.6509 19.5641 64.4017 20.4409 66.675 21.6641C68.4967 22.575 70.455 23.5909 73.08 24.1159C73.5559 24.2087 74.0464 24.1952 74.5164 24.0764C74.9865 23.9576 75.4245 23.7365 75.7992 23.4288C76.1739 23.1211 76.4759 22.7344 76.6838 22.2964C76.8917 21.8584 77.0003 21.3798 77.0017 20.895V20.58C77.0017 18.9709 75.81 17.7109 74.235 17.3591C72.6259 17.01 71.3317 16.38 69.825 15.6109ZM59.5009 28.3159C54.7759 28.3159 51.8017 29.82 49.1767 31.1141C46.9009 32.34 45.15 33.2141 42 33.2141C38.85 33.2141 37.1017 32.34 34.8259 31.1141C32.2009 29.7859 29.3317 28.3159 24.5017 28.3159C19.6717 28.3159 16.8 29.82 14.175 31.1141C12.6709 31.92 11.3767 32.5841 9.76499 32.9359C8.18999 33.285 7.00087 34.545 7.00087 36.1541V36.4691C7.00084 36.9529 7.10866 37.4307 7.3165 37.8676C7.52433 38.3045 7.82695 38.6896 8.20234 38.9948C8.57772 39.3001 9.01643 39.5178 9.48654 39.6321C9.95666 39.7465 10.4464 39.7546 10.92 39.6559C13.545 39.1309 15.5059 38.115 17.325 37.2409C19.6009 36.12 21.4567 35.1409 24.5017 35.1409C27.5467 35.1409 29.4 36.015 31.6759 37.2409C34.3009 38.5691 37.17 40.0391 42 40.0391C46.83 40.0391 49.7017 38.535 52.3267 37.2409C54.6 36.12 56.4559 35.1409 59.5009 35.1409C62.6509 35.1409 64.4017 36.015 66.675 37.2409C68.4967 38.1491 70.455 39.165 73.08 39.69C73.5529 39.7823 74.0402 39.7696 74.5076 39.6529C74.975 39.5362 75.4112 39.3183 75.7852 39.0147C76.1592 38.711 76.462 38.3289 76.6722 37.8954C76.8824 37.4619 76.9949 36.9876 77.0017 36.5059V36.1909C77.0017 34.5791 75.81 33.3191 74.235 32.97C72.6259 32.6209 71.3317 31.9541 69.825 31.1509C67.2 29.7859 64.2259 28.3159 59.5009 28.3159Z" fill="url(#paint0_linear_8_6)"/>
<defs>
<linearGradient id="paint0_linear_8_6" x1="42.0025" y1="12.81" x2="42.0025" y2="71.19" gradientUnits="userSpaceOnUse">
<stop stop-color="#627246"/>
<stop offset="1" stop-color="#2F3621"/>
</linearGradient>
</defs>
</svg>
