<svg width="80" height="80" viewBox="0 0 80 80" fill="none" xmlns="http://www.w3.org/2000/svg">
<mask id="mask0_8_10" style="mask-type:alpha" maskUnits="userSpaceOnUse" x="0" y="0" width="80" height="80">
<rect width="80" height="80" fill="url(#paint0_linear_8_10)"/>
</mask>
<g mask="url(#mask0_8_10)">
<path d="M54.7767 4.30797C55.2216 4.56328 55.5658 4.96039 55.7532 5.43443C55.9407 5.90846 55.9601 6.4314 55.8085 6.91782L47.6224 33.2503H62.7264C63.1703 33.2501 63.6045 33.3787 63.9755 33.62C64.3464 33.8613 64.6378 34.2049 64.8138 34.6083C64.9898 35.0117 65.0425 35.4573 64.9656 35.8901C64.8887 36.3229 64.6854 36.7239 64.3809 37.0436L28.0186 75.2914C27.6668 75.6618 27.1986 75.9033 26.6904 75.9765C26.1821 76.0498 25.6638 75.9504 25.2199 75.6947C24.7761 75.439 24.4327 75.0419 24.246 74.5683C24.0592 74.0947 24.04 73.5724 24.1915 73.0866L32.3775 46.7496H17.2736C16.8297 46.7497 16.3955 46.6212 16.0245 46.3799C15.6536 46.1386 15.3622 45.795 15.1862 45.3916C15.0102 44.9881 14.9575 44.5425 15.0344 44.1098C15.1113 43.677 15.3146 43.276 15.6191 42.9563L51.9814 4.70845C52.3328 4.33856 52.8003 4.09724 53.3078 4.02371C53.8153 3.95019 54.333 4.04878 54.7767 4.30347V4.30797ZM22.5325 42.2498H35.4547C35.8104 42.2497 36.1611 42.3323 36.4786 42.4909C36.7962 42.6494 37.0717 42.8796 37.2831 43.1628C37.4944 43.446 37.6356 43.7743 37.6954 44.1214C37.7552 44.4685 37.7319 44.8246 37.6274 45.1611L31.4094 65.1535L57.463 37.7501H44.5453C44.1896 37.7501 43.8389 37.6676 43.5214 37.509C43.2038 37.3504 42.9283 37.1203 42.7169 36.8371C42.5056 36.5539 42.3644 36.2256 42.3046 35.8785C42.2448 35.5314 42.2681 35.1753 42.3726 34.8387L48.5906 14.8464L22.5325 42.2498Z" fill="url(#paint1_linear_8_10)"/>
</g>
<defs>
<linearGradient id="paint0_linear_8_10" x1="40.0014" y1="0" x2="40.0014" y2="80" gradientUnits="userSpaceOnUse">
<stop stop-color="#627246"/>
<stop offset="1" stop-color="#2F3621"/>
</linearGradient>
<linearGradient id="paint1_linear_8_10" x1="40.0009" y1="4" x2="40.0009" y2="76" gradientUnits="userSpaceOnUse">
<stop stop-color="#627246"/>
<stop offset="1" stop-color="#2F3621"/>
</linearGradient>
</defs>
</svg>
