<svg width="20" height="20" viewBox="0 0 20 20" fill="none" xmlns="http://www.w3.org/2000/svg">
<path d="M16.667 3.33301H3.33301C2.41701 3.33301 1.67501 4.08301 1.67501 5.00001L1.66701 15C1.66701 15.917 2.41701 16.667 3.33301 16.667H16.667C17.583 16.667 18.333 15.917 18.333 15V5.00001C18.333 4.08301 17.583 3.33301 16.667 3.33301ZM16.333 6.87501L10.442 10.559C10.3091 10.6408 10.1561 10.6842 10 10.6842C9.84393 10.6842 9.69091 10.6408 9.55801 10.559L3.66701 6.87501C3.58461 6.82751 3.51263 6.76391 3.45535 6.68798C3.39808 6.61206 3.35669 6.52537 3.33365 6.4331C3.31062 6.34083 3.30641 6.24486 3.32128 6.15093C3.33614 6.057 3.36978 5.96702 3.42019 5.88637C3.47059 5.80572 3.53673 5.73606 3.61465 5.68153C3.69257 5.627 3.78068 5.58874 3.87371 5.56901C3.96675 5.54928 4.06281 5.5485 4.15615 5.56671C4.24949 5.58492 4.33821 5.62176 4.41701 5.67501L10 9.16701L15.583 5.67501C15.6618 5.62176 15.7505 5.58492 15.8439 5.56671C15.9372 5.5485 16.0333 5.54928 16.1263 5.56901C16.2193 5.58874 16.3074 5.627 16.3854 5.68153C16.4633 5.73606 16.5294 5.80572 16.5798 5.88637C16.6302 5.96702 16.6639 6.057 16.6787 6.15093C16.6936 6.24486 16.6894 6.34083 16.6664 6.4331C16.6433 6.52537 16.6019 6.61206 16.5447 6.68798C16.4874 6.76391 16.4154 6.82751 16.333 6.87501Z" fill="url(#paint0_linear_10_35)"/>
<defs>
<linearGradient id="paint0_linear_10_35" x1="10.0003" y1="3.33301" x2="10.0003" y2="16.667" gradientUnits="userSpaceOnUse">
<stop stop-color="#A0B181"/>
<stop offset="1" stop-color="#83985D"/>
</linearGradient>
</defs>
</svg>
