<svg width="16" height="16" viewBox="0 0 16 16" fill="none" xmlns="http://www.w3.org/2000/svg">
<path d="M12.667 4.66698C12.667 3.93398 12.067 3.33398 11.334 3.33398H10.001C9.63399 3.33398 9.33399 3.63398 9.33399 3.99998C9.33399 4.36698 9.63399 4.66698 10.001 4.66698H11.334V6.43398L9.01399 9.33398H6.66699V6.66698C6.66699 6.29998 6.36699 5.99998 6.00099 5.99998H3.99999C3.64972 5.99985 3.30286 6.06875 2.97922 6.20273C2.65559 6.33671 2.36153 6.53316 2.11385 6.78084C1.86617 7.02852 1.66972 7.32258 1.53574 7.64621C1.40176 7.96985 1.33286 8.31671 1.33299 8.66698V9.99998C1.33299 10.367 1.63299 10.667 1.99999 10.667H2.66599C2.66599 11.774 3.55999 12.667 4.66599 12.667C5.77299 12.667 6.66599 11.774 6.66599 10.667H9.01299C9.41999 10.667 9.79999 10.48 10.053 10.167L12.373 7.26698C12.566 7.02698 12.666 6.73298 12.666 6.43398L12.667 4.66698ZM4.66699 11.334C4.49051 11.3329 4.32157 11.2623 4.19687 11.1374C4.07217 11.0125 4.00178 10.8435 4.00099 10.667H5.33399C5.33399 11.034 5.03399 11.334 4.66699 11.334Z" fill="#A0B181"/>
<path d="M3.99999 4H5.99999C6.36699 4 6.66699 4.3 6.66699 4.667C6.66699 5.033 6.36699 5.333 6.00099 5.333H3.99999C3.82343 5.33247 3.65423 5.26217 3.52929 5.13741C3.40434 5.01266 3.33378 4.84356 3.33299 4.667C3.33299 4.3 3.63299 4 3.99999 4ZM12.668 8.666C11.561 8.666 10.668 9.56 10.668 10.666C10.668 11.773 11.561 12.666 12.668 12.666C13.775 12.666 14.668 11.773 14.668 10.666C14.668 9.56 13.775 8.666 12.668 8.666ZM12.668 11.333C12.4913 11.3322 12.3221 11.2617 12.1972 11.1368C12.0723 11.0119 12.0018 10.8427 12.001 10.666C12.001 10.3 12.301 10 12.668 10C13.035 10 13.335 10.3 13.335 10.666C13.335 11.033 13.035 11.333 12.668 11.333Z" fill="#A0B181"/>
</svg>
