<svg width="16" height="16" viewBox="0 0 16 16" fill="none" xmlns="http://www.w3.org/2000/svg">
<g clip-path="url(#clip0_11_2)">
<path d="M1.333 3.99999C1.699 3.99999 1.999 3.69999 1.999 3.33399V2.66699C1.99979 2.49034 2.07032 2.32114 2.19523 2.19622C2.32015 2.07131 2.48934 2.00078 2.666 1.99999H3.333C3.699 1.99999 3.999 1.69999 3.999 1.33399C3.999 0.966992 3.699 0.666992 3.333 0.666992H2.666C1.559 0.666992 0.666 1.55999 0.666 2.66699V3.33399C0.666 3.69999 0.966 3.99999 1.333 3.99999ZM3.333 14H2.666C2.48944 13.9995 2.32024 13.9292 2.19529 13.8044C2.07035 13.6796 1.99979 13.5106 1.999 13.334V12.667C1.98765 12.498 1.9125 12.3395 1.78876 12.2238C1.66501 12.1081 1.50192 12.0437 1.3325 12.0437C1.16308 12.0437 0.99999 12.1081 0.876245 12.2238C0.752501 12.3395 0.677348 12.498 0.666 12.667V13.334C0.666 14.441 1.559 15.334 2.666 15.334H3.333C3.50204 15.3226 3.66045 15.2475 3.77617 15.1237C3.89189 15 3.95626 14.8369 3.95626 14.6675C3.95626 14.4981 3.89189 14.335 3.77617 14.2112C3.66045 14.0875 3.50204 14.0123 3.333 14.001V14ZM13.333 0.666992H12.667C12.3 0.666992 12 0.966992 12 1.33399C12 1.69999 12.3 1.99999 12.667 1.99999H13.333C13.7 1.99999 14 2.29999 14 2.66699V3.33399C14 3.69999 14.3 3.99999 14.667 3.99999C15.033 3.99999 15.333 3.69999 15.333 3.33399V2.66699C15.333 1.55999 14.44 0.666992 13.333 0.666992ZM14.667 12C14.3 12 14 12.3 14 12.667V13.334C14 13.701 13.7 14.001 13.333 14.001H12.667C12.3 14.001 12 14.301 12 14.667C12 15.034 12.3 15.334 12.667 15.334H13.333C14.44 15.334 15.333 14.441 15.333 13.334V12.667C15.333 12.3 15.033 12.001 14.667 12.001V12ZM12.665 9.91399V6.08699C12.665 5.60699 12.412 5.16699 11.999 4.93399L8.665 3.01399C8.4629 2.89541 8.23282 2.83289 7.9985 2.83289C7.76418 2.83289 7.5341 2.89541 7.332 3.01399L3.999 4.92599C3.585 5.16599 3.332 5.60599 3.332 6.08599V9.91299C3.332 10.393 3.585 10.833 3.999 11.066L7.332 12.986C7.5341 13.1046 7.76418 13.1671 7.9985 13.1671C8.23282 13.1671 8.4629 13.1046 8.665 12.986L12 11.067C12.2032 10.9511 12.372 10.7832 12.489 10.5806C12.6061 10.378 12.6671 10.148 12.666 9.91399H12.665ZM7.332 11.447L4.665 9.91399V6.82699L7.332 8.37999V11.447ZM7.999 7.22699L5.359 5.68699L7.999 4.16699L10.639 5.68699L7.999 7.22699ZM11.332 9.91399L8.665 11.447V8.37999L11.332 6.82699V9.91399Z" fill="#A0B181"/>
</g>
<defs>
<clipPath id="clip0_11_2">
<rect width="16" height="16" fill="white"/>
</clipPath>
</defs>
</svg>
