<svg width="20" height="20" viewBox="0 0 20 20" fill="none" xmlns="http://www.w3.org/2000/svg">
<path d="M10 1.66699C5.417 1.66699 1.667 5.41699 1.667 9.99999C1.667 14.583 5.417 18.333 10 18.333C14.583 18.333 18.333 14.583 18.333 9.99999C18.333 5.41699 14.583 1.66699 10 1.66699ZM12.958 13.167L9.558 11.075C9.43559 11.0019 9.33432 10.8981 9.26419 10.774C9.19405 10.6498 9.15745 10.5096 9.158 10.367V6.45799C9.16238 6.29206 9.23086 6.13428 9.34907 6.01775C9.46728 5.90122 9.62602 5.835 9.792 5.83299C9.95736 5.8343 10.1156 5.90057 10.2325 6.0175C10.3494 6.13442 10.4157 6.29264 10.417 6.45799V10.166L13.617 12.091C13.917 12.275 14.017 12.666 13.833 12.967C13.7425 13.1084 13.6001 13.2087 13.4364 13.2461C13.2728 13.2835 13.1009 13.2551 12.958 13.167Z" fill="url(#paint0_linear_10_24)"/>
<defs>
<linearGradient id="paint0_linear_10_24" x1="10.0003" y1="1.66699" x2="10.0003" y2="18.333" gradientUnits="userSpaceOnUse">
<stop stop-color="#627246"/>
<stop offset="1" stop-color="#2F3621"/>
</linearGradient>
</defs>
</svg>
