<svg width="13" height="9" viewBox="0 0 13 9" fill="none" xmlns="http://www.w3.org/2000/svg">
<g clip-path="url(#clip0_1_9)">
<path fill-rule="evenodd" clip-rule="evenodd" d="M12.707 0.293C12.8945 0.480528 12.9998 0.734836 12.9998 1C12.9998 1.26516 12.8945 1.51947 12.707 1.707L5.707 8.707C5.51947 8.89447 5.26517 8.99979 5 8.99979C4.73484 8.99979 4.48053 8.89447 4.293 8.707L0.293003 4.707C0.110845 4.5184 0.0100503 4.2658 0.0123288 4.0036C0.0146072 3.7414 0.119776 3.49059 0.305184 3.30518C0.490592 3.11977 0.741405 3.0146 1.0036 3.01233C1.2658 3.01005 1.5184 3.11084 1.707 3.293L5 6.586L11.293 0.293C11.4805 0.105529 11.7348 0.000213623 12 0.000213623C12.2652 0.000213623 12.5195 0.105529 12.707 0.293Z" fill="url(#paint0_linear_1_9)"/>
</g>
<defs>
<linearGradient id="paint0_linear_1_9" x1="6.50626" y1="0.000213623" x2="6.50626" y2="8.99979" gradientUnits="userSpaceOnUse">
<stop stop-color="#627246"/>
<stop offset="1" stop-color="#2F3621"/>
</linearGradient>
<clipPath id="clip0_1_9">
<rect width="13" height="9" fill="white"/>
</clipPath>
</defs>
</svg>
