<svg width="30" height="30" viewBox="0 0 30 30" fill="none" xmlns="http://www.w3.org/2000/svg">
<path d="M15 9.667C14.2995 9.66674 13.6059 9.80449 12.9587 10.0724C12.3115 10.3403 11.7234 10.7331 11.2281 11.2284C10.7327 11.7236 10.3398 12.3116 10.0718 12.9588C9.80375 13.6059 9.66587 14.2995 9.666 15C9.66587 15.7005 9.80375 16.3941 10.0718 17.0412C10.3398 17.6884 10.7327 18.2764 11.2281 18.7716C11.7234 19.2669 12.3115 19.6597 12.9587 19.9276C13.6059 20.1955 14.2995 20.3333 15 20.333C15.7004 20.3331 16.3939 20.1953 17.041 19.9273C17.6881 19.6594 18.2761 19.2665 18.7713 18.7713C19.2665 18.2761 19.6594 17.6881 19.9273 17.041C20.1953 16.3939 20.3331 15.7004 20.333 15C20.3331 14.2996 20.1953 13.6061 19.9273 12.959C19.6594 12.3119 19.2665 11.7239 18.7713 11.2287C18.2761 10.7335 17.6881 10.3406 17.041 10.0727C16.3939 9.80472 15.7004 9.66687 15 9.667ZM26.92 13.667C26.618 10.9631 25.4056 8.44216 23.4817 6.51829C21.5578 4.59443 19.0369 3.38196 16.333 3.08V1.667C16.333 0.933 15.733 0.333 15 0.333C14.266 0.333 13.666 0.933 13.666 1.667V3.08C10.9622 3.38217 8.44157 4.59473 6.5179 6.51858C4.59424 8.44243 3.38192 10.9632 3.08 13.667H1.666C0.933 13.667 0.333 14.267 0.333 15C0.333 15.733 0.933 16.333 1.666 16.333H3.08C3.38192 19.0368 4.59424 21.5576 6.5179 23.4814C8.44157 25.4053 10.9622 26.6178 13.666 26.92V28.333C13.666 29.067 14.266 29.667 15 29.667C15.733 29.667 16.333 29.067 16.333 28.333V26.92C19.0369 26.618 21.5578 25.4056 23.4817 23.4817C25.4056 21.5578 26.618 19.0369 26.92 16.333H28.333C29.066 16.333 29.666 15.733 29.666 15C29.666 14.267 29.066 13.667 28.333 13.667H26.92ZM15 24.333C13.7741 24.3339 12.56 24.0932 11.4272 23.6245C10.2944 23.1558 9.26508 22.4684 8.39817 21.6015C7.53125 20.7347 6.84373 19.7055 6.37492 18.5727C5.90611 17.44 5.66521 16.2259 5.666 15C5.66508 13.774 5.90589 12.5599 6.37465 11.4271C6.84342 10.2943 7.53093 9.26501 8.39787 8.39817C9.26481 7.53132 10.2942 6.84391 11.427 6.37527C12.5599 5.90663 13.774 5.66595 15 5.667C16.2259 5.66608 17.4399 5.90686 18.5727 6.37556C19.7054 6.84426 20.7346 7.53169 21.6015 8.39852C22.4683 9.26535 23.1557 10.2946 23.6244 11.4273C24.0931 12.5601 24.3339 13.7741 24.333 15C24.3338 16.2258 24.0929 17.4398 23.6242 18.5725C23.1554 19.7052 22.468 20.7344 21.6012 21.6012C20.7344 22.468 19.7052 23.1554 18.5725 23.6242C17.4398 24.0929 16.2258 24.3338 15 24.333Z" fill="url(#paint0_linear_1_6)"/>
<defs>
<linearGradient id="paint0_linear_1_6" x1="15" y1="0.333" x2="15" y2="29.667" gradientUnits="userSpaceOnUse">
<stop stop-color="#627246"/>
<stop offset="1" stop-color="#2F3621"/>
</linearGradient>
</defs>
</svg>
