<svg width="36" height="36" viewBox="0 0 36 36" fill="none" xmlns="http://www.w3.org/2000/svg">
<path fill-rule="evenodd" clip-rule="evenodd" d="M3.10773 3.15779C5.33184 0.933671 8.65999 0.0833359 12.9499 0.0833359H22.95C27.2399 0.0833359 30.5681 0.933671 32.7922 3.15779C35.0163 5.3819 35.8667 8.71005 35.8667 13V21.1456C35.8776 21.2121 35.8833 21.2805 35.8833 21.3502C35.8833 21.4199 35.8776 21.4882 35.8667 21.5548V23C35.8667 27.29 35.0163 30.6181 32.7922 32.8422C30.5681 35.0663 27.2399 35.9167 22.95 35.9167H12.9499C8.65999 35.9167 5.33184 35.0663 3.10773 32.8422C0.883615 30.6181 0.0332796 27.29 0.0332796 23V19.1673C0.0332794 19.1669 0.0332794 19.1666 0.0332796 19.1662V13C0.0332796 8.71005 0.883615 5.3819 3.10773 3.15779ZM2.53328 20.4127V23C2.53328 27.0434 3.34961 29.5486 4.8755 31.0744C6.40138 32.6003 8.90657 33.4167 12.9499 33.4167H22.95C26.9934 33.4167 29.4986 32.6003 31.0244 31.0745C32.5503 29.5486 33.3667 27.0434 33.3667 23V22.6002H27.8667C27.0356 22.6002 26.2059 22.3069 25.5273 21.8976C24.849 21.4885 24.2007 20.8906 23.8111 20.1501C23.8107 20.1495 23.8104 20.1489 23.8101 20.1482L22.4988 17.6644L19.0129 26.5085C19.0121 26.5105 19.0114 26.5124 19.0106 26.5144C18.8657 26.8766 18.6657 27.2396 18.3818 27.5313C18.0924 27.8287 17.6492 28.1127 17.075 28.1127C16.5008 28.1127 16.0576 27.8287 15.7682 27.5313C15.4843 27.2396 15.2843 26.8766 15.1394 26.5144L15.1377 26.5102L13.2393 21.7144C13.2391 21.7138 13.2389 21.7132 13.2386 21.7126C13.1159 21.4072 12.8361 21.062 12.4332 20.7885C12.0299 20.5147 11.6084 20.3839 11.2848 20.3835C11.2843 20.3835 11.2838 20.3835 11.2833 20.3835L2.53328 20.4127ZM33.3667 20.1002V13C33.3667 8.95662 32.5503 6.45144 31.0244 4.92555C29.4986 3.39967 26.9934 2.58334 22.95 2.58334H12.9499C8.90657 2.58334 6.40138 3.39967 4.8755 4.92555C3.34961 6.45144 2.53328 8.95662 2.53328 13V17.9127L11.2791 17.8835L11.2833 17.8835C12.2095 17.8835 13.1123 18.2278 13.8375 18.7202C14.563 19.2128 15.2162 19.9251 15.5605 20.7859L15.5622 20.7901L17.0742 24.6097L20.5032 15.9098C20.5033 15.9097 20.5033 15.9096 20.5033 15.9095C20.744 15.2971 21.2945 14.4501 22.3213 14.3957C23.3443 14.3414 23.9826 15.1205 24.2886 15.6996L24.2887 15.6999L26.0221 18.9833L26.0232 18.9854C26.1503 19.2274 26.4265 19.5205 26.8185 19.7569C27.2107 19.9934 27.5978 20.1002 27.8667 20.1002H33.3667Z" fill="url(#paint0_linear_9_12)"/>
<defs>
<linearGradient id="paint0_linear_9_12" x1="17.9589" y1="0.0833359" x2="17.9589" y2="35.9167" gradientUnits="userSpaceOnUse">
<stop stop-color="#627246"/>
<stop offset="1" stop-color="#2F3621"/>
</linearGradient>
</defs>
</svg>
