<svg width="22" height="29" viewBox="0 0 22 29" fill="none" xmlns="http://www.w3.org/2000/svg">
<path d="M18.6669 10.2824H17.3329V7.61544C17.3323 5.84758 16.6299 4.15226 15.3799 2.9021C14.13 1.65194 12.4347 0.949236 10.6669 0.948441C8.89892 0.949236 7.20361 1.6519 5.95347 2.90204C4.70334 4.15217 4.00067 5.84749 3.99988 7.61544V10.2824H2.66688C1.96037 10.2845 1.28338 10.5661 0.783707 11.0656C0.284032 11.5651 0.00225184 12.2419 -0.00012207 12.9484V26.2824C-0.00012207 27.7484 1.19988 28.9484 2.66688 28.9484H18.6669C20.1329 28.9484 21.3329 27.7484 21.3329 26.2824V12.9484C21.3329 11.4824 20.1329 10.2824 18.6669 10.2824ZM10.6669 22.2824C9.96019 22.2803 9.28306 21.9987 8.78335 21.499C8.28365 20.9993 8.00199 20.3221 7.99988 19.6154C7.99988 18.1484 9.19988 16.9484 10.6669 16.9484C12.1329 16.9484 13.3329 18.1484 13.3329 19.6154C13.3329 21.0824 12.1329 22.2824 10.6669 22.2824ZM6.66688 10.2824V7.61544C6.66688 5.40244 8.45288 3.61544 10.6669 3.61544C12.8799 3.61544 14.6669 5.40244 14.6669 7.61544V10.2824H6.66688Z" fill="url(#paint0_linear_9_3)"/>
<defs>
<linearGradient id="paint0_linear_9_3" x1="10.6667" y1="0.948441" x2="10.6667" y2="28.9484" gradientUnits="userSpaceOnUse">
<stop stop-color="#627246"/>
<stop offset="1" stop-color="#2F3621"/>
</linearGradient>
</defs>
</svg>
