<svg width="18" height="10" viewBox="0 0 18 10" fill="none" xmlns="http://www.w3.org/2000/svg">
<path fill-rule="evenodd" clip-rule="evenodd" d="M12.293 0.292786C12.4805 0.105315 12.7348 0 13 0C13.2652 0 13.5195 0.105315 13.707 0.292786L17.707 4.29279C17.8945 4.48031 17.9998 4.73462 17.9998 4.99979C17.9998 5.26495 17.8945 5.51926 17.707 5.70679L13.707 9.70679C13.5184 9.88894 13.2658 9.98974 13.0036 9.98746C12.7414 9.98518 12.4906 9.88001 12.3052 9.6946C12.1198 9.5092 12.0146 9.25838 12.0123 8.99619C12.01 8.73399 12.1108 8.48139 12.293 8.29279L14.586 5.99979H1C0.734784 5.99979 0.48043 5.89443 0.292893 5.70689C0.105357 5.51936 0 5.265 0 4.99979C0 4.73457 0.105357 4.48022 0.292893 4.29268C0.48043 4.10514 0.734784 3.99979 1 3.99979H14.586L12.293 1.70679C12.1055 1.51926 12.0002 1.26495 12.0002 0.999786C12.0002 0.734622 12.1055 0.480314 12.293 0.292786Z" fill="#D7DECA"/>
</svg>
