<svg width="72" height="72" viewBox="0 0 72 72" fill="none" xmlns="http://www.w3.org/2000/svg">
<mask id="mask0_8_14" style="mask-type:alpha" maskUnits="userSpaceOnUse" x="0" y="0" width="72" height="72">
<rect width="72" height="72" fill="url(#paint0_linear_8_14)"/>
</mask>
<g mask="url(#mask0_8_14)">
<path fill-rule="evenodd" clip-rule="evenodd" d="M57.6067 4.22539C61.3118 3.17286 65 5.93892 65 9.77014V46.8167C65 53.1863 59.8064 58.35 53.4 58.35C46.9936 58.35 41.8 53.1863 41.8 46.8167C41.8 40.4472 46.9936 35.2834 53.4 35.2834C55.5129 35.2834 57.4939 35.8451 59.2 36.8263V21.0727L30.2 29.3108V55.4667C30.2 61.8362 25.0065 67 18.6 67C12.1935 67 7 61.8362 7 55.4667C7 49.0971 12.1935 43.9334 18.6 43.9334C20.7129 43.9334 22.6938 44.4951 24.4 45.4763V18.0082C24.4 15.4335 26.1167 13.1708 28.6066 12.4635L57.6067 4.22539ZM55.624 10.4C57.4063 9.86846 59.2 11.1953 59.2 13.0453C59.2 14.2649 58.3953 15.3401 57.2205 15.6905L33.776 22.6835C31.9937 23.2151 30.2 21.8882 30.2 20.0382C30.2 18.8186 31.0048 17.7434 32.1795 17.393L55.624 10.4ZM47.6484 46.8167C47.6484 49.9748 50.2236 52.5352 53.4 52.5352C56.5767 52.5352 59.1516 49.9748 59.1516 46.8167C59.1516 43.6583 56.5767 41.0982 53.4 41.0982C50.2236 41.0982 47.6484 43.6583 47.6484 46.8167ZM12.8484 55.4667C12.8484 58.6248 15.4235 61.1852 18.6 61.1852C21.7765 61.1852 24.3516 58.6248 24.3516 55.4667C24.3516 52.3083 21.7765 49.7482 18.6 49.7482C15.4235 49.7482 12.8484 52.3083 12.8484 55.4667Z" fill="url(#paint1_linear_8_14)"/>
</g>
<defs>
<linearGradient id="paint0_linear_8_14" x1="36.0012" y1="0" x2="36.0012" y2="72" gradientUnits="userSpaceOnUse">
<stop stop-color="#627246"/>
<stop offset="1" stop-color="#2F3621"/>
</linearGradient>
<linearGradient id="paint1_linear_8_14" x1="36.001" y1="4" x2="36.001" y2="67" gradientUnits="userSpaceOnUse">
<stop stop-color="#627246"/>
<stop offset="1" stop-color="#2F3621"/>
</linearGradient>
</defs>
</svg>
