<svg width="34" height="34" viewBox="0 0 34 34" fill="none" xmlns="http://www.w3.org/2000/svg">
<path fill-rule="evenodd" clip-rule="evenodd" d="M10.1782 4.09286C9.62651 1.9315 7.66656 0.333328 5.33333 0.333328C2.57191 0.333328 0.333328 2.57191 0.333328 5.33333C0.333328 7.66656 1.9315 9.62651 4.09286 10.1782C4.08656 10.2291 4.08333 10.2808 4.08333 10.3333V23.6667C4.08333 23.7192 4.08658 23.771 4.09286 23.8217C1.9315 24.3735 0.333328 26.3335 0.333328 28.6667C0.333328 31.4282 2.57191 33.6667 5.33333 33.6667C7.66656 33.6667 9.62651 32.0685 10.1782 29.9072C10.2291 29.9135 10.2808 29.9167 10.3333 29.9167H23.6667C23.7192 29.9167 23.771 29.9135 23.8217 29.9072C24.3735 32.0685 26.3335 33.6667 28.6667 33.6667C31.4282 33.6667 33.6667 31.4282 33.6667 28.6667C33.6667 26.3335 32.0685 24.3735 29.9072 23.8217C29.9135 23.771 29.9167 23.7192 29.9167 23.6667V10.3333C29.9167 10.2808 29.9135 10.2291 29.9072 10.1782C32.0685 9.62651 33.6667 7.66656 33.6667 5.33333C33.6667 2.57191 31.4282 0.333328 28.6667 0.333328C26.3335 0.333328 24.3735 1.9315 23.8217 4.09286C23.771 4.08658 23.7192 4.08333 23.6667 4.08333H10.3333C10.2808 4.08333 10.2291 4.08656 10.1782 4.09286ZM6.57379 10.1782C6.58009 10.2291 6.58333 10.2808 6.58333 10.3333V23.6667C6.58333 23.7192 6.58008 23.771 6.57379 23.8217C8.33851 24.2722 9.72778 25.6615 10.1782 27.4262C10.2291 27.4198 10.2808 27.4167 10.3333 27.4167H23.6667C23.7192 27.4167 23.771 27.4198 23.8217 27.4262C24.2722 25.6615 25.6615 24.2722 27.4262 23.8217C27.4198 23.771 27.4167 23.7192 27.4167 23.6667V10.3333C27.4167 10.2808 27.4198 10.2291 27.4262 10.1782C25.6615 9.72778 24.2722 8.33851 23.8217 6.57379C23.771 6.58008 23.7192 6.58333 23.6667 6.58333H10.3333C10.2808 6.58333 10.2291 6.58009 10.1782 6.57381C9.72776 8.33851 8.33851 9.72778 6.57379 10.1782Z" fill="url(#paint0_linear_9_5)"/>
<defs>
<linearGradient id="paint0_linear_9_5" x1="17.0006" y1="0.333328" x2="17.0006" y2="33.6667" gradientUnits="userSpaceOnUse">
<stop stop-color="#627246"/>
<stop offset="1" stop-color="#2F3621"/>
</linearGradient>
</defs>
</svg>
