<svg width="22" height="22" viewBox="0 0 22 22" fill="none" xmlns="http://www.w3.org/2000/svg">
<path d="M2.73387 5.34845C0.988083 7.09439 0.00507987 9.46085 1.96331e-05 11.9299C-0.00504061 14.3989 0.968254 16.7694 2.70687 18.5224C4.66687 13.9884 8.15987 10.2024 12.5199 7.94845C8.75648 11.1327 6.21604 15.5254 5.33287 20.3754C8.79987 22.0154 13.0669 21.4154 15.9329 18.5484C19.9199 14.5624 21.0399 3.69545 21.2799 0.708448C21.2881 0.613662 21.2755 0.518221 21.2429 0.428825C21.2104 0.339429 21.1586 0.258243 21.0914 0.190966C21.0241 0.12369 20.9429 0.071952 20.8535 0.039385C20.7641 0.00681803 20.6687 -0.00578898 20.5739 0.00244826C17.5869 0.242448 6.71987 1.36245 2.73387 5.34845Z" fill="url(#paint0_linear_9_7)"/>
<defs>
<linearGradient id="paint0_linear_9_7" x1="10.6415" y1="0" x2="10.6415" y2="21.2747" gradientUnits="userSpaceOnUse">
<stop stop-color="#627246"/>
<stop offset="1" stop-color="#2F3621"/>
</linearGradient>
</defs>
</svg>
