<svg width="20" height="20" viewBox="0 0 20 20" fill="none" xmlns="http://www.w3.org/2000/svg">
<path d="M16.024 12.717L13.907 12.475C13.6582 12.4458 13.406 12.4733 13.1694 12.5556C12.9328 12.6379 12.718 12.7727 12.541 12.95L11.007 14.483C8.64207 13.2797 6.71986 11.3572 5.517 8.992L7.057 7.45C7.417 7.092 7.592 6.592 7.533 6.083L7.292 3.983C7.24462 3.57624 7.04925 3.20112 6.74313 2.92911C6.437 2.6571 6.04151 2.50721 5.632 2.508H4.192C3.25 2.508 2.467 3.292 2.525 4.233C2.967 11.35 8.658 17.033 15.767 17.475C16.707 17.533 17.491 16.75 17.491 15.808V14.367C17.4931 13.9596 17.3446 13.5658 17.074 13.2612C16.8034 12.9567 16.4288 12.7629 16.024 12.717Z" fill="url(#paint0_linear_10_33)"/>
<defs>
<linearGradient id="paint0_linear_10_33" x1="10.0068" y1="2.508" x2="10.0068" y2="17.478" gradientUnits="userSpaceOnUse">
<stop stop-color="#A0B181"/>
<stop offset="1" stop-color="#83985D"/>
</linearGradient>
</defs>
</svg>
