<svg width="120" height="32" viewBox="0 0 120 32" fill="none" xmlns="http://www.w3.org/2000/svg">
<path d="M24.5654 4.57143C23.3956 3.18012 21.8359 2.08696 20.1787 1.29193C18.424 0.496894 16.4744 0.0993789 14.4273 0.0993789C12.3802 0.0993789 10.528 0.496894 8.77335 1.29193C7.01868 2.08696 5.45898 3.18012 4.09423 4.57143C2.82697 5.96273 1.75467 7.55279 1.0723 9.44099C0.389927 11.2298 0 13.2174 0 15.3043V29.5155C0 30.1118 0.194963 30.6087 0.58489 31.0062C0.974817 31.4037 1.46223 31.6025 2.04712 31.6025C2.82697 31.6025 3.2169 31.3043 3.50934 31.0062C3.80179 30.6087 3.99675 30.1118 3.99675 29.6149V15.3043C3.99675 13.7143 4.2892 12.2236 4.7766 10.9317C5.26401 9.54037 6.04387 8.34783 7.01868 7.35404C7.9935 6.36025 9.0658 5.56522 10.3331 4.96894C11.6003 4.37267 12.9651 4.07453 14.4273 4.07453C15.8895 4.07453 17.2543 4.37267 18.5215 4.96894C19.7888 5.56522 20.8611 6.36025 21.7384 7.35404C22.6158 8.34783 23.2981 9.54037 23.7855 10.9317C24.2729 12.323 24.5654 13.7143 24.5654 15.3043V29.4161C24.5654 30.0124 24.7604 30.5093 25.1503 30.9068C25.5402 31.3043 26.0276 31.5031 26.6125 31.5031C27.1974 31.5031 27.6848 31.3043 28.0747 30.9068C28.4647 30.5093 28.6596 30.0124 28.6596 29.4161V15.3043C28.6596 13.2174 28.2697 11.2298 27.5873 9.44099C26.8075 7.55279 25.8327 5.96273 24.5654 4.57143ZM57.7092 4.77019C56.3444 3.37888 54.6872 2.18634 52.7376 1.3913C50.788 0.496894 48.7409 0.0993789 46.5963 0.0993789C44.4517 0.0993789 42.4045 0.496894 40.5524 1.3913C38.7002 2.18634 37.0431 3.37888 35.5808 4.77019C34.2161 6.16149 33.0463 7.85093 32.2664 9.83851C31.4866 11.7267 30.9992 13.913 30.9992 16.0994C30.9992 18.2857 31.3891 20.3727 32.2664 22.2609C33.0463 24.1491 34.2161 25.8385 35.5808 27.3292C36.9456 28.7205 38.7002 29.913 40.5524 30.7081C42.4045 31.5031 44.4517 32 46.5963 32C48.7409 32 50.788 31.6025 52.6401 30.7081C54.4923 29.913 56.1495 28.7205 57.6117 27.3292C58.9764 25.9379 60.1462 24.1491 60.9261 22.2609C61.7059 20.3727 62.0959 18.2857 62.0959 16.0994C62.0959 13.913 61.7059 11.8261 60.9261 9.93789C60.1462 7.85093 59.0739 6.16149 57.7092 4.77019ZM46.5963 27.8261C44.9391 27.8261 43.4768 27.5279 42.1121 26.9317C40.7474 26.3354 39.4801 25.441 38.4078 24.3478C37.3355 23.2547 36.5556 21.9627 35.9708 20.5714C35.3859 19.1801 35.0934 17.5901 35.0934 16C35.0934 14.4099 35.3859 12.8199 35.9708 11.4286C36.5556 10.0373 37.433 8.74534 38.4078 7.65217C39.4801 6.55901 40.6499 5.76397 42.1121 5.1677C43.4768 4.57143 45.0366 4.27329 46.5963 4.27329C48.2535 4.27329 49.8132 4.57143 51.1779 5.1677C52.5426 5.76397 53.8099 6.65838 54.8822 7.65217C55.9545 8.74534 56.7344 9.93789 57.3193 11.4286C57.9041 12.8199 58.1966 14.4099 58.1966 16C58.1966 17.5901 57.9041 19.0807 57.3193 20.5714C56.7344 21.9627 55.857 23.2547 54.8822 24.3478C53.8099 25.441 52.6401 26.236 51.1779 26.9317C49.8132 27.5279 48.2535 27.8261 46.5963 27.8261ZM89.1958 1.78882C89.0008 1.29193 88.6109 0.89441 88.1235 0.695652C87.831 0.596273 87.6361 0.496894 87.3436 0.496894C86.5638 0.496894 85.8814 0.993789 85.4915 1.78882L75.1584 24.8447L64.8253 1.78882C64.4354 0.993789 63.753 0.496894 62.9732 0.496894C62.6807 0.496894 62.3883 0.596273 62.1933 0.695652C61.7059 0.89441 61.316 1.29193 61.121 1.78882C60.9261 2.28571 60.9261 2.88199 61.2185 3.37888L73.3063 30.1118C73.5012 30.4099 73.6962 30.7081 73.9886 31.0062C74.2811 31.3043 74.7685 31.5031 75.2559 31.5031C75.7433 31.5031 76.5231 31.205 77.108 30.1118L89.0983 3.37888C89.2933 2.88199 89.3907 2.28571 89.1958 1.78882ZM118.538 9.73913C117.758 7.85093 116.588 6.16149 115.223 4.67081C113.859 3.2795 112.201 2.08696 110.252 1.29193C108.4 0.496894 106.353 0 104.208 0C102.063 0 100.016 0.397515 98.1641 1.29193C96.3119 2.08696 94.6548 3.2795 93.1925 4.67081C91.8278 6.06211 90.658 7.85093 89.8781 9.73913C89.0983 11.6273 88.6109 13.7143 88.6109 15.9006C88.6109 18.087 89.0008 20.1739 89.8781 22.0621C90.658 23.9503 91.8278 25.6397 93.1925 27.1304C94.5573 28.5217 96.2145 29.7143 98.1641 30.5093C100.016 31.3043 102.063 31.8012 104.208 31.8012C106.645 31.8012 108.887 31.3043 110.837 30.3106C112.689 29.3168 114.346 28.1242 115.613 26.6335C116.198 26.0373 116.296 25.441 116.296 25.1429C116.296 24.646 116.101 24.1491 115.808 23.8509C115.516 23.5528 115.223 23.2547 114.931 23.1553C114.833 23.1553 114.736 23.0559 114.639 23.0559C114.541 23.0559 114.444 23.0559 114.346 23.0559C113.859 23.0559 113.371 23.2547 112.981 23.6522H112.884V23.7516C112.396 24.3478 111.909 24.9441 111.227 25.441C110.544 25.9379 109.862 26.3354 109.18 26.7329C108.4 27.1304 107.62 27.3292 106.84 27.5279C106.06 27.7267 105.183 27.8261 104.403 27.8261C102.941 27.8261 101.478 27.5279 100.211 27.0311C98.8465 26.5342 97.6767 25.7391 96.7019 24.7453C95.727 23.7516 94.8497 22.6584 94.2648 21.3665C93.7774 20.2733 93.3875 19.1801 93.1925 17.9876H118.05C118.635 17.9876 119.123 17.7888 119.513 17.3913C119.903 16.9938 120 16.4969 120 16C119.805 13.7143 119.415 11.7267 118.538 9.73913ZM115.711 14.3106H92.9001C93.095 13.0186 93.3875 11.9255 93.8749 10.8323C94.4598 9.54037 95.3371 8.34783 96.3119 7.35404C97.2868 6.36025 98.554 5.56522 99.8213 5.06832C101.186 4.47205 102.648 4.27329 104.11 4.27329C105.67 4.27329 107.035 4.57143 108.4 5.06832C109.764 5.6646 110.934 6.36025 112.006 7.35404C113.079 8.34783 113.859 9.44099 114.541 10.7329C115.223 11.8261 115.516 13.0186 115.711 14.3106ZM46.5963 7.55279C42.0146 7.55279 38.3103 11.3292 38.3103 16C38.3103 20.6708 42.0146 24.4472 46.5963 24.4472C51.1779 24.4472 54.8822 20.6708 54.8822 16C54.8822 11.3292 51.1779 7.55279 46.5963 7.55279ZM46.5963 20.472C44.1592 20.472 42.2096 18.4845 42.2096 16C42.2096 13.5155 44.1592 11.528 46.5963 11.528C49.0333 11.528 50.9829 13.5155 50.9829 16C50.9829 18.4845 49.0333 20.472 46.5963 20.472Z" fill="white"/>
</svg>
